<svg width="43" height="43" viewBox="0 0 43 43" fill="none" xmlns="http://www.w3.org/2000/svg">
<path d="M0.0375977 21.3066C0.0375977 9.70866 9.43962 0.306641 21.0376 0.306641H30.0376C36.665 0.306641 42.0376 5.67922 42.0376 12.3066V21.3066C42.0376 32.9046 32.6356 42.3066 21.0376 42.3066C9.43962 42.3066 0.0375977 32.9046 0.0375977 21.3066Z" fill="#F87F28"/>
<path d="M26.7855 17.4373C27.5972 17.8326 28.5164 17.9496 29.4012 17.7703V26.8521C29.4012 27.0691 29.315 27.2772 29.1616 27.4306C29.0082 27.5841 28.8 27.6703 28.5831 27.6703H13.8558C13.6388 27.6703 13.4307 27.5841 13.2772 27.4306C13.1238 27.2772 13.0376 27.0691 13.0376 26.8521V13.7612C13.0376 13.5442 13.1238 13.3361 13.2772 13.1826C13.4307 13.0292 13.6388 12.943 13.8558 12.943H24.574C24.52 13.2073 24.4921 13.4814 24.4921 13.7612C24.4908 14.7332 24.837 15.6737 25.4682 16.4129L21.2693 20.0473L16.0215 15.5923L14.9628 16.8392L21.2791 22.2024L26.7855 17.4373ZM28.5831 16.2157C28.2607 16.2157 27.9415 16.1522 27.6437 16.0289C27.3459 15.9055 27.0754 15.7247 26.8474 15.4968C26.6195 15.2689 26.4387 14.9983 26.3153 14.7005C26.192 14.4027 26.1285 14.0835 26.1285 13.7612C26.1285 13.4389 26.192 13.1197 26.3153 12.8219C26.4387 12.5241 26.6195 12.2535 26.8474 12.0256C27.0754 11.7976 27.3459 11.6168 27.6437 11.4935C27.9415 11.3701 28.2607 11.3066 28.5831 11.3066C29.234 11.3066 29.8584 11.5652 30.3187 12.0256C30.779 12.4859 31.0376 13.1102 31.0376 13.7612C31.0376 14.4122 30.779 15.0365 30.3187 15.4968C29.8584 15.9571 29.234 16.2157 28.5831 16.2157Z" fill="white"/>
</svg>
