<svg width="43" height="43" viewBox="0 0 43 43" fill="none" xmlns="http://www.w3.org/2000/svg">
<path d="M0.0375977 21.6709C0.0375977 10.0729 9.43962 0.670898 21.0376 0.670898H30.0376C36.665 0.670898 42.0376 6.04348 42.0376 12.6709V21.6709C42.0376 33.2689 32.6356 42.6709 21.0376 42.6709C9.43962 42.6709 0.0375977 33.2689 0.0375977 21.6709Z" fill="#F87F28"/>
<path d="M26.7656 24.3988L21.4934 29.6709L16.2213 24.3988C15.1786 23.3561 14.4685 22.0276 14.1809 20.5813C13.8932 19.135 14.0408 17.6359 14.6052 16.2735C15.1695 14.9111 16.1251 13.7467 17.3512 12.9274C18.5773 12.1082 20.0188 11.6709 21.4934 11.6709C22.9681 11.6709 24.4096 12.1082 25.6357 12.9274C26.8618 13.7467 27.8174 14.9111 28.3817 16.2735C28.9461 17.6359 29.0937 19.135 28.806 20.5813C28.5184 22.0276 27.8083 23.3561 26.7656 24.3988ZM21.4934 20.7835C21.9329 20.7835 22.3543 20.609 22.665 20.2983C22.9757 19.9875 23.1503 19.5661 23.1503 19.1267C23.1503 18.6873 22.9757 18.2658 22.665 17.9551C22.3543 17.6444 21.9329 17.4698 21.4934 17.4698C21.054 17.4698 20.6326 17.6444 20.3219 17.9551C20.0112 18.2658 19.8366 18.6873 19.8366 19.1267C19.8366 19.5661 20.0112 19.9875 20.3219 20.2983C20.6326 20.609 21.054 20.7835 21.4934 20.7835Z" fill="#F7FBFE"/>
</svg>
