<svg width="43" height="43" viewBox="0 0 43 43" fill="none" xmlns="http://www.w3.org/2000/svg">
<path d="M0.0375977 21.6704C0.0375977 10.0724 9.43962 0.67041 21.0376 0.67041H30.0376C36.665 0.67041 42.0376 6.04299 42.0376 12.6704V21.6704C42.0376 33.2684 32.6356 42.6704 21.0376 42.6704C9.43962 42.6704 0.0375977 33.2684 0.0375977 21.6704Z" fill="#F87F28"/>
<path d="M30.0376 26.0904V29.6264C30.0377 29.8796 29.9418 30.1234 29.7692 30.3086C29.5966 30.4938 29.3602 30.6067 29.1076 30.6244C28.6706 30.6544 28.3136 30.6704 28.0376 30.6704C19.2006 30.6704 12.0376 23.5074 12.0376 14.6704C12.0376 14.3944 12.0526 14.0374 12.0836 13.6004C12.1013 13.3479 12.2142 13.1114 12.3994 12.9388C12.5846 12.7662 12.8284 12.6703 13.0816 12.6704H16.6176C16.7416 12.6703 16.8613 12.7163 16.9533 12.7994C17.0454 12.8826 17.1032 12.997 17.1156 13.1204C17.1386 13.3504 17.1596 13.5334 17.1796 13.6724C17.3783 15.0593 17.7856 16.4082 18.3876 17.6734C18.4826 17.8734 18.4206 18.1124 18.2406 18.2404L16.0826 19.7824C17.4021 22.8569 19.8521 25.307 22.9266 26.6264L24.4666 24.4724C24.5295 24.3844 24.6214 24.3213 24.7261 24.2941C24.8308 24.2668 24.9418 24.2772 25.0396 24.3234C26.3046 24.9243 27.6532 25.3305 29.0396 25.5284C29.1786 25.5484 29.3616 25.5704 29.5896 25.5924C29.7128 25.605 29.827 25.663 29.9099 25.755C29.9929 25.847 30.0377 25.9665 30.0376 26.0904Z" fill="white"/>
</svg>
