<svg width="24" height="24" viewBox="0 0 24 24" fill="none" xmlns="http://www.w3.org/2000/svg">
<g clip-path="url(#clip0_7_1176)">
<path d="M16.0005 13L22.9645 17.062L19.9915 17.912L22.1165 21.593L20.3845 22.593L18.2595 18.913L16.0365 21.063L16.0005 13ZM14.0005 6H16.0005V8H21.0005C21.2657 8 21.5201 8.10536 21.7076 8.29289C21.8951 8.48043 22.0005 8.73478 22.0005 9V13H20.0005V10H10.0005V20H14.0005V22H9.00049C8.73527 22 8.48092 21.8946 8.29338 21.7071C8.10585 21.5196 8.00049 21.2652 8.00049 21V16H6.00049V14H8.00049V9C8.00049 8.73478 8.10585 8.48043 8.29338 8.29289C8.48092 8.10536 8.73527 8 9.00049 8H14.0005V6ZM4.00049 14V16H2.00049V14H4.00049ZM4.00049 10V12H2.00049V10H4.00049ZM4.00049 6V8H2.00049V6H4.00049ZM4.00049 2V4H2.00049V2H4.00049ZM8.00049 2V4H6.00049V2H8.00049ZM12.0005 2V4H10.0005V2H12.0005ZM16.0005 2V4H14.0005V2H16.0005Z" fill="#F87F28"/>
</g>
<defs>
<clipPath id="clip0_7_1176">
<rect width="24" height="24" fill="white" transform="translate(0.000488281)"/>
</clipPath>
</defs>
</svg>
